<svg width="40" height="91" viewBox="0 0 40 91" fill="none" xmlns="http://www.w3.org/2000/svg">
<circle cx="20" cy="20" r="20" fill="#E8D7F8"/>
<path d="M26.6668 23.1605V15.1138C26.6668 14.3138 26.0135 13.7205 25.2202 13.7871H25.1802C23.7802 13.9071 21.6535 14.6205 20.4668 15.3671L20.3535 15.4405C20.1602 15.5605 19.8402 15.5605 19.6468 15.4405L19.4802 15.3405C18.2935 14.6005 16.1735 13.8938 14.7735 13.7805C13.9802 13.7138 13.3335 14.3138 13.3335 15.1071V23.1605C13.3335 23.8005 13.8535 24.4005 14.4935 24.4805L14.6868 24.5071C16.1335 24.7005 18.3668 25.4338 19.6468 26.1338L19.6735 26.1471C19.8535 26.2471 20.1402 26.2471 20.3135 26.1471C21.5935 25.4405 23.8335 24.7005 25.2868 24.5071L25.5068 24.4805C26.1468 24.4005 26.6668 23.8005 26.6668 23.1605Z" stroke="#292D32" stroke-width="1.5" stroke-linecap="round" stroke-linejoin="round"/>
<path d="M20 15.6602V25.6602" stroke="#292D32" stroke-width="1.5" stroke-linecap="round" stroke-linejoin="round"/>
<path d="M17.1665 17.6602H15.6665" stroke="#292D32" stroke-width="1.5" stroke-linecap="round" stroke-linejoin="round"/>
<path d="M17.6665 19.6602H15.6665" stroke="#292D32" stroke-width="1.5" stroke-linecap="round" stroke-linejoin="round"/>
<line x1="21" y1="40" x2="21" y2="91" stroke="#492B7C" stroke-width="2"/>
</svg>
