<svg width="32" height="33" viewBox="0 0 32 33" fill="none" xmlns="http://www.w3.org/2000/svg">
<path d="M16.0268 4.12988C11.6135 4.12988 8.02678 7.71655 8.02678 12.1299V15.9832C8.02678 16.7965 7.68012 18.0365 7.26678 18.7299L5.73345 21.2765C4.78678 22.8499 5.44012 24.5965 7.17345 25.1832C12.9201 27.1032 19.1201 27.1032 24.8668 25.1832C26.4801 24.6499 27.1868 22.7432 26.3068 21.2765L24.7735 18.7299C24.3735 18.0365 24.0268 16.7965 24.0268 15.9832V12.1299C24.0268 7.72988 20.4268 4.12988 16.0268 4.12988Z" stroke="#303030" stroke-width="1.5" stroke-miterlimit="10" stroke-linecap="round"/>
<path d="M18.4934 4.51643C18.0801 4.39643 17.6534 4.30309 17.2134 4.24976C15.9334 4.08976 14.7067 4.18309 13.5601 4.51643C13.9467 3.52976 14.9067 2.83643 16.0267 2.83643C17.1467 2.83643 18.1067 3.52976 18.4934 4.51643Z" stroke="#303030" stroke-width="1.5" stroke-miterlimit="10" stroke-linecap="round" stroke-linejoin="round"/>
<path d="M20.0266 25.6636C20.0266 27.8636 18.2266 29.6636 16.0266 29.6636C14.9333 29.6636 13.9199 29.2102 13.1999 28.4902C12.4799 27.7702 12.0266 26.7569 12.0266 25.6636" stroke="#303030" stroke-width="1.5" stroke-miterlimit="10"/>
</svg>
