<svg width="124" height="25" viewBox="0 0 124 25" fill="none" xmlns="http://www.w3.org/2000/svg">
<rect width="25" height="25" rx="4" fill="#050D8B"/>
<path d="M34.05 17.098C33.882 17.098 33.7467 17.0607 33.644 16.986C33.5507 16.9113 33.4947 16.8087 33.476 16.678C33.4573 16.5473 33.4853 16.4027 33.56 16.244L37.382 7.592C37.466 7.396 37.5733 7.256 37.704 7.172C37.8347 7.07867 37.9793 7.032 38.138 7.032C38.2967 7.032 38.4367 7.07867 38.558 7.172C38.6887 7.256 38.8007 7.396 38.894 7.592L42.716 16.244C42.7907 16.4027 42.8187 16.552 42.8 16.692C42.7907 16.8227 42.7393 16.9253 42.646 17C42.5527 17.0653 42.422 17.098 42.254 17.098C42.0673 17.098 41.918 17.0513 41.806 16.958C41.694 16.8553 41.596 16.7107 41.512 16.524L40.518 14.2L41.12 14.536H35.128L35.73 14.2L34.736 16.524C34.652 16.7293 34.5587 16.8787 34.456 16.972C34.3533 17.056 34.218 17.098 34.05 17.098ZM38.11 8.6L35.926 13.766L35.59 13.472H40.658L40.336 13.766L38.138 8.6H38.11ZM46.5459 17.126C46.1259 17.126 45.7012 17.0793 45.2719 16.986C44.8519 16.8833 44.4552 16.7107 44.0819 16.468C43.9792 16.4027 43.9045 16.3233 43.8579 16.23C43.8205 16.1273 43.8065 16.0293 43.8159 15.936C43.8345 15.8333 43.8765 15.7447 43.9419 15.67C44.0072 15.5953 44.0865 15.5533 44.1799 15.544C44.2825 15.5253 44.3899 15.5487 44.5019 15.614C44.8659 15.8193 45.2159 15.964 45.5519 16.048C45.8972 16.132 46.2379 16.174 46.5739 16.174C47.0872 16.174 47.4745 16.0807 47.7359 15.894C47.9972 15.7073 48.1279 15.46 48.1279 15.152C48.1279 14.8907 48.0392 14.69 47.8619 14.55C47.6939 14.4007 47.4279 14.2887 47.0639 14.214L45.7619 13.948C45.1832 13.8173 44.7445 13.6027 44.4459 13.304C44.1565 12.996 44.0119 12.604 44.0119 12.128C44.0119 11.708 44.1239 11.344 44.3479 11.036C44.5812 10.7187 44.9032 10.476 45.3139 10.308C45.7245 10.14 46.1959 10.056 46.7279 10.056C47.1385 10.056 47.5259 10.112 47.8899 10.224C48.2632 10.3267 48.5992 10.4853 48.8979 10.7C49.0099 10.7653 49.0799 10.8493 49.1079 10.952C49.1452 11.0453 49.1499 11.1433 49.1219 11.246C49.1032 11.3393 49.0612 11.4187 48.9959 11.484C48.9305 11.5493 48.8465 11.5913 48.7439 11.61C48.6412 11.6193 48.5292 11.5913 48.4079 11.526C48.1372 11.3393 47.8572 11.2087 47.5679 11.134C47.2879 11.05 47.0079 11.008 46.7279 11.008C46.2239 11.008 45.8412 11.106 45.5799 11.302C45.3279 11.498 45.2019 11.7547 45.2019 12.072C45.2019 12.3147 45.2765 12.5153 45.4259 12.674C45.5845 12.8327 45.8319 12.9493 46.1679 13.024L47.4699 13.29C48.0765 13.4207 48.5339 13.6307 48.8419 13.92C49.1499 14.2 49.3039 14.5827 49.3039 15.068C49.3039 15.7027 49.0519 16.2067 48.5479 16.58C48.0532 16.944 47.3859 17.126 46.5459 17.126ZM53.3135 17.126C52.8935 17.126 52.4688 17.0793 52.0395 16.986C51.6195 16.8833 51.2228 16.7107 50.8495 16.468C50.7468 16.4027 50.6721 16.3233 50.6255 16.23C50.5881 16.1273 50.5741 16.0293 50.5835 15.936C50.6021 15.8333 50.6441 15.7447 50.7095 15.67C50.7748 15.5953 50.8541 15.5533 50.9475 15.544C51.0501 15.5253 51.1575 15.5487 51.2695 15.614C51.6335 15.8193 51.9835 15.964 52.3195 16.048C52.6648 16.132 53.0055 16.174 53.3415 16.174C53.8548 16.174 54.2421 16.0807 54.5035 15.894C54.7648 15.7073 54.8955 15.46 54.8955 15.152C54.8955 14.8907 54.8068 14.69 54.6295 14.55C54.4615 14.4007 54.1955 14.2887 53.8315 14.214L52.5295 13.948C51.9508 13.8173 51.5121 13.6027 51.2135 13.304C50.9241 12.996 50.7795 12.604 50.7795 12.128C50.7795 11.708 50.8915 11.344 51.1155 11.036C51.3488 10.7187 51.6708 10.476 52.0815 10.308C52.4921 10.14 52.9635 10.056 53.4955 10.056C53.9061 10.056 54.2935 10.112 54.6575 10.224C55.0308 10.3267 55.3668 10.4853 55.6655 10.7C55.7775 10.7653 55.8475 10.8493 55.8755 10.952C55.9128 11.0453 55.9175 11.1433 55.8895 11.246C55.8708 11.3393 55.8288 11.4187 55.7635 11.484C55.6981 11.5493 55.6141 11.5913 55.5115 11.61C55.4088 11.6193 55.2968 11.5913 55.1755 11.526C54.9048 11.3393 54.6248 11.2087 54.3355 11.134C54.0555 11.05 53.7755 11.008 53.4955 11.008C52.9915 11.008 52.6088 11.106 52.3475 11.302C52.0955 11.498 51.9695 11.7547 51.9695 12.072C51.9695 12.3147 52.0441 12.5153 52.1935 12.674C52.3521 12.8327 52.5995 12.9493 52.9355 13.024L54.2375 13.29C54.8441 13.4207 55.3015 13.6307 55.6095 13.92C55.9175 14.2 56.0715 14.5827 56.0715 15.068C56.0715 15.7027 55.8195 16.2067 55.3155 16.58C54.8208 16.944 54.1535 17.126 53.3135 17.126ZM58.359 17.07C58.163 17.07 58.009 17.0093 57.897 16.888C57.785 16.7667 57.729 16.5987 57.729 16.384V10.798C57.729 10.574 57.785 10.406 57.897 10.294C58.009 10.1727 58.163 10.112 58.359 10.112C58.5644 10.112 58.723 10.1727 58.835 10.294C58.947 10.406 59.003 10.574 59.003 10.798V16.384C59.003 16.5987 58.947 16.7667 58.835 16.888C58.7324 17.0093 58.5737 17.07 58.359 17.07ZM58.359 8.6C58.107 8.6 57.9064 8.53467 57.757 8.404C57.617 8.264 57.547 8.082 57.547 7.858C57.547 7.61533 57.617 7.43333 57.757 7.312C57.9064 7.18133 58.107 7.116 58.359 7.116C58.6297 7.116 58.8304 7.18133 58.961 7.312C59.101 7.43333 59.171 7.61533 59.171 7.858C59.171 8.082 59.101 8.264 58.961 8.404C58.8304 8.53467 58.6297 8.6 58.359 8.6ZM64.1173 19.646C63.6133 19.646 63.1233 19.59 62.6473 19.478C62.1806 19.366 61.756 19.1933 61.3733 18.96C61.252 18.8853 61.168 18.7967 61.1213 18.694C61.084 18.6007 61.0746 18.5027 61.0933 18.4C61.1213 18.2973 61.168 18.204 61.2333 18.12C61.308 18.0453 61.392 17.994 61.4853 17.966C61.588 17.9473 61.6906 17.9707 61.7933 18.036C62.204 18.2693 62.596 18.428 62.9693 18.512C63.3426 18.596 63.6973 18.638 64.0333 18.638C64.696 18.638 65.1906 18.4653 65.5173 18.12C65.8533 17.784 66.0213 17.2893 66.0213 16.636V15.124H66.1473C66.0166 15.6467 65.7226 16.062 65.2653 16.37C64.8173 16.678 64.2946 16.832 63.6973 16.832C63.0813 16.832 62.5446 16.692 62.0873 16.412C61.63 16.1227 61.2753 15.726 61.0233 15.222C60.7713 14.7087 60.6453 14.116 60.6453 13.444C60.6453 12.9307 60.7153 12.4687 60.8553 12.058C61.0046 11.638 61.21 11.2833 61.4713 10.994C61.742 10.6953 62.064 10.4667 62.4373 10.308C62.8106 10.14 63.2306 10.056 63.6973 10.056C64.304 10.056 64.8313 10.21 65.2793 10.518C65.7273 10.826 66.0166 11.2413 66.1473 11.764L65.9933 11.96V10.728C65.9933 10.5133 66.0493 10.3547 66.1613 10.252C66.2733 10.14 66.432 10.084 66.6373 10.084C66.8333 10.084 66.9873 10.14 67.0993 10.252C67.2113 10.3547 67.2673 10.5133 67.2673 10.728V16.468C67.2673 17.5227 66.9966 18.316 66.4553 18.848C65.9233 19.38 65.144 19.646 64.1173 19.646ZM63.9773 15.824C64.3973 15.824 64.7566 15.7307 65.0553 15.544C65.3633 15.348 65.5966 15.0727 65.7553 14.718C65.9233 14.354 66.0073 13.9293 66.0073 13.444C66.0073 12.7067 65.8253 12.128 65.4613 11.708C65.0973 11.2787 64.6026 11.064 63.9773 11.064C63.5573 11.064 63.1933 11.162 62.8853 11.358C62.5866 11.5447 62.3533 11.8153 62.1853 12.17C62.0173 12.5247 61.9333 12.9493 61.9333 13.444C61.9333 14.172 62.1153 14.7507 62.4793 15.18C62.8526 15.6093 63.352 15.824 63.9773 15.824ZM69.9391 17.098C69.7431 17.098 69.5891 17.042 69.4771 16.93C69.3651 16.818 69.3091 16.6547 69.3091 16.44V10.728C69.3091 10.5133 69.3651 10.3547 69.4771 10.252C69.5891 10.14 69.7431 10.084 69.9391 10.084C70.1351 10.084 70.2844 10.14 70.3871 10.252C70.4991 10.3547 70.5551 10.5133 70.5551 10.728V11.876L70.4011 11.666C70.5971 11.134 70.9144 10.7327 71.3531 10.462C71.8011 10.1913 72.3098 10.056 72.8791 10.056C73.4298 10.056 73.8824 10.154 74.2371 10.35C74.5918 10.546 74.8578 10.8447 75.0351 11.246C75.2124 11.6473 75.3011 12.156 75.3011 12.772V16.44C75.3011 16.6547 75.2451 16.818 75.1331 16.93C75.0304 17.042 74.8764 17.098 74.6711 17.098C74.4658 17.098 74.3071 17.042 74.1951 16.93C74.0831 16.818 74.0271 16.6547 74.0271 16.44V12.842C74.0271 12.2353 73.9104 11.792 73.6771 11.512C73.4438 11.232 73.0704 11.092 72.5571 11.092C71.9598 11.092 71.4791 11.2787 71.1151 11.652C70.7604 12.016 70.5831 12.5107 70.5831 13.136V16.44C70.5831 16.8787 70.3684 17.098 69.9391 17.098ZM80.4708 17.126C79.7335 17.126 79.0988 16.986 78.5668 16.706C78.0442 16.4167 77.6382 16.0107 77.3488 15.488C77.0595 14.956 76.9148 14.3307 76.9148 13.612C76.9148 12.9027 77.0548 12.282 77.3348 11.75C77.6242 11.218 78.0162 10.8027 78.5108 10.504C79.0148 10.2053 79.5888 10.056 80.2328 10.056C80.6902 10.056 81.1008 10.1353 81.4648 10.294C81.8382 10.4433 82.1555 10.6627 82.4168 10.952C82.6782 11.2413 82.8742 11.596 83.0048 12.016C83.1448 12.4267 83.2148 12.8933 83.2148 13.416C83.2148 13.5653 83.1682 13.682 83.0748 13.766C82.9908 13.8407 82.8648 13.878 82.6968 13.878H77.9088V13.066H82.3748L82.1368 13.262C82.1368 12.7767 82.0622 12.366 81.9128 12.03C81.7728 11.6847 81.5628 11.4233 81.2828 11.246C81.0122 11.0687 80.6715 10.98 80.2608 10.98C79.8128 10.98 79.4302 11.0873 79.1128 11.302C78.7955 11.5073 78.5528 11.8013 78.3848 12.184C78.2168 12.5573 78.1328 12.9913 78.1328 13.486V13.57C78.1328 14.41 78.3335 15.0447 78.7348 15.474C79.1362 15.9033 79.7148 16.118 80.4708 16.118C80.7695 16.118 81.0728 16.0807 81.3808 16.006C81.6982 15.9313 82.0015 15.796 82.2908 15.6C82.4308 15.516 82.5568 15.4787 82.6688 15.488C82.7902 15.488 82.8882 15.5253 82.9628 15.6C83.0375 15.6653 83.0842 15.7493 83.1028 15.852C83.1215 15.9453 83.1075 16.048 83.0608 16.16C83.0142 16.272 82.9255 16.37 82.7948 16.454C82.4868 16.6687 82.1182 16.8367 81.6888 16.958C81.2688 17.07 80.8628 17.126 80.4708 17.126ZM85.4573 17.098C85.2613 17.098 85.1073 17.042 84.9953 16.93C84.8833 16.818 84.8273 16.6547 84.8273 16.44V10.728C84.8273 10.5133 84.8833 10.3547 84.9953 10.252C85.1073 10.14 85.2613 10.084 85.4573 10.084C85.6533 10.084 85.8027 10.14 85.9053 10.252C86.0173 10.3547 86.0733 10.5133 86.0733 10.728V11.918L85.9193 11.666C86.0967 11.1527 86.3813 10.756 86.7733 10.476C87.1747 10.196 87.6507 10.056 88.2013 10.056C88.78 10.056 89.2467 10.196 89.6013 10.476C89.956 10.7467 90.194 11.162 90.3153 11.722H90.1193C90.2873 11.2087 90.586 10.8027 91.0153 10.504C91.454 10.2053 91.9627 10.056 92.5413 10.056C93.0547 10.056 93.4747 10.1587 93.8013 10.364C94.1373 10.56 94.3893 10.8587 94.5573 11.26C94.7253 11.652 94.8093 12.156 94.8093 12.772V16.44C94.8093 16.6547 94.7533 16.818 94.6413 16.93C94.5293 17.042 94.3753 17.098 94.1793 17.098C93.974 17.098 93.8153 17.042 93.7033 16.93C93.5913 16.818 93.5353 16.6547 93.5353 16.44V12.828C93.5353 12.2307 93.4327 11.792 93.2273 11.512C93.022 11.232 92.6767 11.092 92.1913 11.092C91.6593 11.092 91.2347 11.2787 90.9173 11.652C90.6093 12.016 90.4553 12.52 90.4553 13.164V16.44C90.4553 16.6547 90.3993 16.818 90.2873 16.93C90.1847 17.042 90.0307 17.098 89.8253 17.098C89.62 17.098 89.4613 17.042 89.3493 16.93C89.2373 16.818 89.1813 16.6547 89.1813 16.44V12.828C89.1813 12.2307 89.0787 11.792 88.8733 11.512C88.668 11.232 88.3227 11.092 87.8373 11.092C87.3053 11.092 86.8807 11.2787 86.5633 11.652C86.2553 12.016 86.1013 12.52 86.1013 13.164V16.44C86.1013 16.8787 85.8867 17.098 85.4573 17.098ZM100.008 17.126C99.2706 17.126 98.6359 16.986 98.1039 16.706C97.5813 16.4167 97.1753 16.0107 96.8859 15.488C96.5966 14.956 96.4519 14.3307 96.4519 13.612C96.4519 12.9027 96.5919 12.282 96.8719 11.75C97.1613 11.218 97.5533 10.8027 98.0479 10.504C98.5519 10.2053 99.1259 10.056 99.7699 10.056C100.227 10.056 100.638 10.1353 101.002 10.294C101.375 10.4433 101.693 10.6627 101.954 10.952C102.215 11.2413 102.411 11.596 102.542 12.016C102.682 12.4267 102.752 12.8933 102.752 13.416C102.752 13.5653 102.705 13.682 102.612 13.766C102.528 13.8407 102.402 13.878 102.234 13.878H97.4459V13.066H101.912L101.674 13.262C101.674 12.7767 101.599 12.366 101.45 12.03C101.31 11.6847 101.1 11.4233 100.82 11.246C100.549 11.0687 100.209 10.98 99.7979 10.98C99.3499 10.98 98.9673 11.0873 98.6499 11.302C98.3326 11.5073 98.0899 11.8013 97.9219 12.184C97.7539 12.5573 97.6699 12.9913 97.6699 13.486V13.57C97.6699 14.41 97.8706 15.0447 98.2719 15.474C98.6733 15.9033 99.2519 16.118 100.008 16.118C100.307 16.118 100.61 16.0807 100.918 16.006C101.235 15.9313 101.539 15.796 101.828 15.6C101.968 15.516 102.094 15.4787 102.206 15.488C102.327 15.488 102.425 15.5253 102.5 15.6C102.575 15.6653 102.621 15.7493 102.64 15.852C102.659 15.9453 102.645 16.048 102.598 16.16C102.551 16.272 102.463 16.37 102.332 16.454C102.024 16.6687 101.655 16.8367 101.226 16.958C100.806 17.07 100.4 17.126 100.008 17.126ZM104.966 17.098C104.77 17.098 104.616 17.042 104.504 16.93C104.392 16.818 104.336 16.6547 104.336 16.44V10.728C104.336 10.5133 104.392 10.3547 104.504 10.252C104.616 10.14 104.77 10.084 104.966 10.084C105.162 10.084 105.312 10.14 105.414 10.252C105.526 10.3547 105.582 10.5133 105.582 10.728V11.876L105.428 11.666C105.624 11.134 105.942 10.7327 106.38 10.462C106.828 10.1913 107.337 10.056 107.906 10.056C108.457 10.056 108.91 10.154 109.264 10.35C109.619 10.546 109.885 10.8447 110.062 11.246C110.24 11.6473 110.328 12.156 110.328 12.772V16.44C110.328 16.6547 110.272 16.818 110.16 16.93C110.058 17.042 109.904 17.098 109.698 17.098C109.493 17.098 109.334 17.042 109.222 16.93C109.11 16.818 109.054 16.6547 109.054 16.44V12.842C109.054 12.2353 108.938 11.792 108.704 11.512C108.471 11.232 108.098 11.092 107.584 11.092C106.987 11.092 106.506 11.2787 106.142 11.652C105.788 12.016 105.61 12.5107 105.61 13.136V16.44C105.61 16.8787 105.396 17.098 104.966 17.098ZM115.176 17.126C114.626 17.126 114.164 17.028 113.79 16.832C113.426 16.636 113.151 16.3513 112.964 15.978C112.787 15.6047 112.698 15.1473 112.698 14.606V11.162H111.802C111.634 11.162 111.504 11.12 111.41 11.036C111.317 10.9427 111.27 10.8213 111.27 10.672C111.27 10.5133 111.317 10.392 111.41 10.308C111.504 10.224 111.634 10.182 111.802 10.182H112.698V8.656C112.698 8.44133 112.754 8.28267 112.866 8.18C112.978 8.068 113.137 8.012 113.342 8.012C113.548 8.012 113.702 8.068 113.804 8.18C113.916 8.28267 113.972 8.44133 113.972 8.656V10.182H115.666C115.844 10.182 115.979 10.224 116.072 10.308C116.166 10.392 116.212 10.5133 116.212 10.672C116.212 10.8213 116.166 10.9427 116.072 11.036C115.979 11.12 115.844 11.162 115.666 11.162H113.972V14.494C113.972 15.0073 114.08 15.3947 114.294 15.656C114.509 15.9173 114.864 16.048 115.358 16.048C115.536 16.048 115.685 16.034 115.806 16.006C115.928 15.9687 116.035 15.95 116.128 15.95C116.212 15.9407 116.282 15.9687 116.338 16.034C116.404 16.0993 116.436 16.2207 116.436 16.398C116.436 16.5287 116.413 16.65 116.366 16.762C116.329 16.8647 116.25 16.9347 116.128 16.972C116.016 17.0093 115.867 17.042 115.68 17.07C115.494 17.1073 115.326 17.126 115.176 17.126ZM119.718 17.126C119.298 17.126 118.873 17.0793 118.444 16.986C118.024 16.8833 117.627 16.7107 117.254 16.468C117.151 16.4027 117.076 16.3233 117.03 16.23C116.992 16.1273 116.978 16.0293 116.988 15.936C117.006 15.8333 117.048 15.7447 117.114 15.67C117.179 15.5953 117.258 15.5533 117.352 15.544C117.454 15.5253 117.562 15.5487 117.674 15.614C118.038 15.8193 118.388 15.964 118.724 16.048C119.069 16.132 119.41 16.174 119.746 16.174C120.259 16.174 120.646 16.0807 120.908 15.894C121.169 15.7073 121.3 15.46 121.3 15.152C121.3 14.8907 121.211 14.69 121.034 14.55C120.866 14.4007 120.6 14.2887 120.236 14.214L118.934 13.948C118.355 13.8173 117.916 13.6027 117.618 13.304C117.328 12.996 117.184 12.604 117.184 12.128C117.184 11.708 117.296 11.344 117.52 11.036C117.753 10.7187 118.075 10.476 118.486 10.308C118.896 10.14 119.368 10.056 119.9 10.056C120.31 10.056 120.698 10.112 121.062 10.224C121.435 10.3267 121.771 10.4853 122.07 10.7C122.182 10.7653 122.252 10.8493 122.28 10.952C122.317 11.0453 122.322 11.1433 122.294 11.246C122.275 11.3393 122.233 11.4187 122.168 11.484C122.102 11.5493 122.018 11.5913 121.916 11.61C121.813 11.6193 121.701 11.5913 121.58 11.526C121.309 11.3393 121.029 11.2087 120.74 11.134C120.46 11.05 120.18 11.008 119.9 11.008C119.396 11.008 119.013 11.106 118.752 11.302C118.5 11.498 118.374 11.7547 118.374 12.072C118.374 12.3147 118.448 12.5153 118.598 12.674C118.756 12.8327 119.004 12.9493 119.34 13.024L120.642 13.29C121.248 13.4207 121.706 13.6307 122.014 13.92C122.322 14.2 122.476 14.5827 122.476 15.068C122.476 15.7027 122.224 16.2067 121.72 16.58C121.225 16.944 120.558 17.126 119.718 17.126Z" fill="black"/>
</svg>
