<svg width="48" height="46" viewBox="0 0 48 46" fill="none" xmlns="http://www.w3.org/2000/svg">
<path fill-rule="evenodd" clip-rule="evenodd" d="M24.0714 46C36.8747 46 47.2538 35.7025 47.2538 23C47.2538 10.2975 36.8747 0 24.0714 0C11.2681 0 0.888916 10.2975 0.888916 23C0.888916 35.7025 11.2681 46 24.0714 46ZM17.0035 32.0072C18.6111 32.7492 20.5017 33.1203 22.6755 33.1203C23.9361 33.1203 25.2605 32.9994 26.6488 32.7579C28.0554 32.499 29.4073 32.1021 30.7042 31.5671C31.9099 31.0666 32.5128 30.2901 32.5128 29.2375C32.5128 28.9096 32.4397 28.6422 32.2935 28.435C32.1473 28.2279 31.9282 28.1244 31.6358 28.1244C31.4532 28.1244 31.2249 28.1762 30.9508 28.2797C29.4711 28.8664 28.1194 29.3065 26.8954 29.5998C25.6897 29.876 24.4932 30.014 23.3059 30.014C20.9127 30.014 19.1043 29.4532 17.8803 28.3315C16.6563 27.1925 16.0444 25.5876 16.0444 23.5169C16.0444 21.5323 16.3824 19.824 17.0583 18.3916C17.7341 16.9421 18.6201 15.8462 19.7162 15.1042C20.8123 14.3621 21.9632 13.9912 23.1688 13.9912C24.9408 13.9912 25.8268 14.7764 25.8268 16.3466C25.8268 16.6572 25.772 17.0715 25.6623 17.5891C25.5893 18.0034 25.5527 18.2881 25.5527 18.4433C25.5527 18.8748 25.6989 19.2027 25.9911 19.427C26.2835 19.6513 26.6853 19.7635 27.1968 19.7635C27.9276 19.7635 28.4847 19.4442 28.8683 18.8057C29.2701 18.1673 29.4711 17.3217 29.4711 16.2691C29.4711 14.6987 28.9597 13.4389 27.9367 12.4898C26.9137 11.5234 25.4157 11.0402 23.4428 11.0402C21.3238 11.0402 19.3965 11.5838 17.661 12.671C15.9257 13.7408 14.5464 15.2595 13.5235 17.2267C12.5187 19.194 12.0164 21.4461 12.0164 23.9827C12.0164 25.812 12.4457 27.4169 13.3042 28.7974C14.1629 30.1779 15.3959 31.2479 17.0035 32.0072ZM35.3415 32.499C35.7616 32.9131 36.3736 33.1203 37.1774 33.1203C37.9994 33.1203 38.648 32.8873 39.123 32.4213C39.5979 31.9382 39.8353 31.2997 39.8353 30.5058C39.8353 29.781 39.6253 29.2375 39.2051 28.8751C38.8033 28.4955 38.2004 28.3056 37.3967 28.3056C36.5563 28.3056 35.8986 28.5385 35.4237 29.0045C34.967 29.4704 34.7387 30.0917 34.7387 30.8682C34.7387 31.5412 34.9397 32.0849 35.3415 32.499Z" fill="#492B7C"/>
</svg>
