<svg width="16" height="18" viewBox="0 0 16 18" fill="none" xmlns="http://www.w3.org/2000/svg">
<rect width="16" height="16" transform="translate(0 1)" fill="white" style="mix-blend-mode:multiply"/>
<path d="M15.47 8.83C14.882 7.30882 13.861 5.99331 12.5334 5.04604C11.2058 4.09878 9.62977 3.56129 8.00003 3.5C6.37029 3.56129 4.79423 4.09878 3.46663 5.04604C2.13904 5.99331 1.11811 7.30882 0.530031 8.83C0.490315 8.93985 0.490315 9.06015 0.530031 9.17C1.11811 10.6912 2.13904 12.0067 3.46663 12.954C4.79423 13.9012 6.37029 14.4387 8.00003 14.5C9.62977 14.4387 11.2058 13.9012 12.5334 12.954C13.861 12.0067 14.882 10.6912 15.47 9.17C15.5097 9.06015 15.5097 8.93985 15.47 8.83ZM8.00003 13.5C5.35003 13.5 2.55003 11.535 1.53503 9C2.55003 6.465 5.35003 4.5 8.00003 4.5C10.65 4.5 13.45 6.465 14.465 9C13.45 11.535 10.65 13.5 8.00003 13.5Z" fill="#333333"/>
<path d="M8.00003 6C7.40669 6 6.82667 6.17595 6.33332 6.50559C5.83997 6.83524 5.45546 7.30377 5.22839 7.85195C5.00133 8.40013 4.94192 9.00333 5.05768 9.58527C5.17343 10.1672 5.45915 10.7018 5.87871 11.1213C6.29827 11.5409 6.83282 11.8266 7.41476 11.9424C7.9967 12.0581 8.5999 11.9987 9.14808 11.7716C9.69626 11.5446 10.1648 11.1601 10.4944 10.6667C10.8241 10.1734 11 9.59334 11 9C11 8.20435 10.684 7.44129 10.1214 6.87868C9.55874 6.31607 8.79568 6 8.00003 6ZM8.00003 11C7.60447 11 7.21779 10.8827 6.88889 10.6629C6.55999 10.4432 6.30365 10.1308 6.15227 9.76537C6.0009 9.39991 5.96129 8.99778 6.03846 8.60982C6.11563 8.22186 6.30611 7.86549 6.58582 7.58579C6.86552 7.30608 7.22189 7.1156 7.60985 7.03843C7.99781 6.96126 8.39995 7.00087 8.7654 7.15224C9.13085 7.30362 9.44321 7.55996 9.66297 7.88886C9.88273 8.21776 10 8.60444 10 9C10 9.53043 9.78932 10.0391 9.41424 10.4142C9.03917 10.7893 8.53046 11 8.00003 11Z" fill="#333333"/>
</svg>
