<svg width="32" height="33" viewBox="0 0 32 33" fill="none" xmlns="http://www.w3.org/2000/svg">
<path d="M16 21.5C13.24 21.5 11 19.26 11 16.5C11 13.74 13.24 11.5 16 11.5C18.76 11.5 21 13.74 21 16.5C21 19.26 18.76 21.5 16 21.5ZM16 13.5C14.3467 13.5 13 14.8467 13 16.5C13 18.1533 14.3467 19.5 16 19.5C17.6533 19.5 19 18.1533 19 16.5C19 14.8467 17.6533 13.5 16 13.5Z" fill="#292D32"/>
<path d="M20.28 30.0869C20 30.0869 19.72 30.0469 19.44 29.9802C18.6133 29.7536 17.92 29.2336 17.48 28.5002L17.32 28.2336C16.5333 26.8736 15.4533 26.8736 14.6666 28.2336L14.52 28.4869C14.08 29.2336 13.3866 29.7669 12.56 29.9802C11.72 30.2069 10.8533 30.0869 10.12 29.6469L7.82663 28.3269C7.01329 27.8602 6.42663 27.1002 6.17329 26.1802C5.93329 25.2602 6.05329 24.3136 6.51996 23.5002C6.90663 22.8202 7.01329 22.2069 6.78663 21.8202C6.55996 21.4336 5.98663 21.2069 5.19996 21.2069C3.25329 21.2069 1.66663 19.6202 1.66663 17.6736V15.3269C1.66663 13.3802 3.25329 11.7936 5.19996 11.7936C5.98663 11.7936 6.55996 11.5669 6.78663 11.1802C7.01329 10.7936 6.91996 10.1802 6.51996 9.50022C6.05329 8.68689 5.93329 7.72689 6.17329 6.82022C6.41329 5.90022 6.99996 5.14022 7.82663 4.67355L10.1333 3.35355C11.64 2.46022 13.6266 2.98022 14.5333 4.51355L14.6933 4.78022C15.48 6.14022 16.56 6.14022 17.3466 4.78022L17.4933 4.52689C18.4 2.98022 20.3866 2.46022 21.9066 3.36689L24.2 4.68689C25.0133 5.15355 25.6 5.91355 25.8533 6.83355C26.0933 7.75355 25.9733 8.70022 25.5066 9.51355C25.12 10.1936 25.0133 10.8069 25.24 11.1936C25.4666 11.5802 26.04 11.8069 26.8266 11.8069C28.7733 11.8069 30.36 13.3936 30.36 15.3402V17.6869C30.36 19.6336 28.7733 21.2202 26.8266 21.2202C26.04 21.2202 25.4666 21.4469 25.24 21.8336C25.0133 22.2202 25.1066 22.8336 25.5066 23.5136C25.9733 24.3269 26.1066 25.2869 25.8533 26.1936C25.6133 27.1136 25.0266 27.8736 24.2 28.3402L21.8933 29.6602C21.3866 29.9402 20.84 30.0869 20.28 30.0869ZM16 25.1536C17.1866 25.1536 18.2933 25.9002 19.0533 27.2202L19.2 27.4736C19.36 27.7536 19.6266 27.9536 19.9466 28.0336C20.2666 28.1136 20.5866 28.0736 20.8533 27.9136L23.16 26.5802C23.5066 26.3802 23.7733 26.0469 23.88 25.6469C23.9866 25.2469 23.9333 24.8336 23.7333 24.4869C22.9733 23.1802 22.88 21.8336 23.4666 20.8069C24.0533 19.7802 25.2666 19.1936 26.7866 19.1936C27.64 19.1936 28.32 18.5136 28.32 17.6602V15.3136C28.32 14.4736 27.64 13.7802 26.7866 13.7802C25.2666 13.7802 24.0533 13.1936 23.4666 12.1669C22.88 11.1402 22.9733 9.79355 23.7333 8.48689C23.9333 8.14022 23.9866 7.72689 23.88 7.32689C23.7733 6.92689 23.52 6.60689 23.1733 6.39355L20.8666 5.07355C20.2933 4.72689 19.5333 4.92689 19.1866 5.51355L19.04 5.76689C18.28 7.08689 17.1733 7.83355 15.9866 7.83355C14.8 7.83355 13.6933 7.08689 12.9333 5.76689L12.7866 5.50022C12.4533 4.94022 11.7066 4.74022 11.1333 5.07355L8.82663 6.40689C8.47996 6.60689 8.21329 6.94022 8.10663 7.34022C7.99996 7.74022 8.05329 8.15355 8.25329 8.50022C9.01329 9.80689 9.10663 11.1536 8.51996 12.1802C7.93329 13.2069 6.71996 13.7936 5.19996 13.7936C4.34663 13.7936 3.66663 14.4736 3.66663 15.3269V17.6736C3.66663 18.5136 4.34663 19.2069 5.19996 19.2069C6.71996 19.2069 7.93329 19.7936 8.51996 20.8202C9.10663 21.8469 9.01329 23.1936 8.25329 24.5002C8.05329 24.8469 7.99996 25.2602 8.10663 25.6602C8.21329 26.0602 8.46663 26.3802 8.81329 26.5936L11.12 27.9136C11.4 28.0869 11.7333 28.1269 12.04 28.0469C12.36 27.9669 12.6266 27.7536 12.8 27.4736L12.9466 27.2202C13.7066 25.9136 14.8133 25.1536 16 25.1536Z" fill="#292D32"/>
</svg>
