<svg width="150" height="46" viewBox="0 0 150 46" fill="none" xmlns="http://www.w3.org/2000/svg">
<path d="M71.1058 29.1062C71.3097 29.1062 71.4859 29.1844 71.6343 29.3408L73.1087 30.9278C72.2927 31.9306 71.2866 32.6988 70.0903 33.2324C68.9034 33.766 67.4754 34.0328 65.8062 34.0328C64.3133 34.0328 62.9687 33.7798 61.7725 33.2738C60.5855 32.7678 59.5701 32.064 58.7263 31.1624C57.8825 30.2608 57.2333 29.1844 56.779 27.9332C56.3338 26.682 56.1113 25.3158 56.1113 23.8346C56.1113 22.335 56.3616 20.9642 56.8624 19.7222C57.3632 18.471 58.0679 17.3946 58.9766 16.493C59.8854 15.5914 60.9703 14.8922 62.2315 14.3954C63.5019 13.8894 64.9021 13.6364 66.4322 13.6364C67.9251 13.6364 69.228 13.8756 70.3407 14.354C71.4627 14.8232 72.4225 15.4488 73.22 16.2308L71.9682 17.9558C71.8939 18.0662 71.7966 18.1628 71.6761 18.2456C71.5648 18.3284 71.4071 18.3698 71.2032 18.3698C70.9898 18.3698 70.7719 18.287 70.5493 18.1214C70.3269 17.9558 70.044 17.7764 69.7009 17.5832C69.3578 17.39 68.9219 17.2106 68.3933 17.045C67.874 16.8794 67.2111 16.7966 66.4043 16.7966C65.4585 16.7966 64.5868 16.9622 63.7894 17.2934C63.0011 17.6154 62.3195 18.08 61.7447 18.6872C61.179 19.2944 60.7339 20.035 60.4094 20.909C60.094 21.7738 59.9364 22.749 59.9364 23.8346C59.9364 24.957 60.094 25.9552 60.4094 26.8292C60.7339 27.7032 61.1697 28.4392 61.7168 29.0372C62.264 29.6352 62.9083 30.0952 63.6502 30.4172C64.3921 30.73 65.1896 30.8864 66.0427 30.8864C66.5527 30.8864 67.0117 30.8588 67.4197 30.8036C67.837 30.7484 68.2172 30.661 68.5603 30.5414C68.9126 30.4218 69.2419 30.27 69.5479 30.086C69.8632 29.8928 70.1738 29.6582 70.4798 29.3822C70.5726 29.2994 70.6699 29.235 70.7719 29.189C70.8739 29.1338 70.9852 29.1062 71.1058 29.1062Z" fill="#492B7C"/>
<path d="M79.4071 19.6532V33.812H75.9714V19.6532H79.4071ZM79.9218 15.527C79.9218 15.8214 79.8615 16.0974 79.741 16.355C79.6204 16.6126 79.4581 16.838 79.2542 17.0312C79.0594 17.2244 78.8275 17.3808 78.5587 17.5004C78.2897 17.6108 78.0022 17.666 77.6963 17.666C77.3995 17.666 77.1167 17.6108 76.8477 17.5004C76.5881 17.3808 76.3609 17.2244 76.1662 17.0312C75.9714 16.838 75.8139 16.6126 75.6932 16.355C75.582 16.0974 75.5264 15.8214 75.5264 15.527C75.5264 15.2234 75.582 14.9382 75.6932 14.6714C75.8139 14.4046 75.9714 14.1746 76.1662 13.9814C76.3609 13.7882 76.5881 13.6364 76.8477 13.526C77.1167 13.4064 77.3995 13.3466 77.6963 13.3466C78.0022 13.3466 78.2897 13.4064 78.5587 13.526C78.8275 13.6364 79.0594 13.7882 79.2542 13.9814C79.4581 14.1746 79.6204 14.4046 79.741 14.6714C79.8615 14.9382 79.9218 15.2234 79.9218 15.527Z" fill="#492B7C"/>
<path d="M87.9888 34.0328C86.7555 34.0328 85.8051 33.6878 85.1375 32.9978C84.4697 32.2986 84.136 31.3372 84.136 30.1136V22.2062H82.6894C82.5038 22.2062 82.3416 22.1464 82.2025 22.0268C82.0727 21.9072 82.0078 21.7278 82.0078 21.4886V20.1362L84.3028 19.7636L85.0262 15.8996C85.0632 15.7156 85.1467 15.573 85.2765 15.4718C85.4156 15.3706 85.5871 15.32 85.7912 15.32H87.5716V19.7774H91.3272V22.2062H87.5716V29.879C87.5716 30.3206 87.6828 30.6656 87.9054 30.914C88.128 31.1624 88.4247 31.2866 88.7956 31.2866C89.0089 31.2866 89.1851 31.2636 89.3242 31.2176C89.4726 31.1624 89.5977 31.1072 89.6998 31.052C89.8111 30.9968 89.9084 30.9462 89.9919 30.9002C90.0753 30.845 90.1588 30.8174 90.2422 30.8174C90.3442 30.8174 90.4277 30.845 90.4926 30.9002C90.5576 30.9462 90.6271 31.0198 90.7012 31.121L91.7305 32.777C91.2298 33.191 90.6549 33.5038 90.0058 33.7154C89.3567 33.927 88.6843 34.0328 87.9888 34.0328Z" fill="#492B7C"/>
<path d="M94.0596 33.8121V19.6533H96.0764C96.4288 19.6533 96.6745 19.7177 96.8136 19.8465C96.9527 19.9753 97.0455 20.1961 97.0917 20.5089L97.3004 22.2201C97.8105 21.3461 98.4085 20.6561 99.0948 20.1501C99.7809 19.6441 100.551 19.3911 101.404 19.3911C102.108 19.3911 102.693 19.5521 103.156 19.8741L102.711 22.4271C102.683 22.5927 102.623 22.7123 102.53 22.7859C102.438 22.8503 102.312 22.8825 102.155 22.8825C102.016 22.8825 101.826 22.8503 101.585 22.7859C101.343 22.7215 101.024 22.6893 100.625 22.6893C99.9108 22.6893 99.2987 22.8871 98.7888 23.2827C98.2787 23.6691 97.8475 24.2395 97.4951 24.9939V33.8121H94.0596Z" fill="#492B7C"/>
<path d="M111.508 19.4324C112.574 19.4324 113.538 19.6026 114.401 19.943C115.272 20.2834 116.014 20.7664 116.626 21.392C117.238 22.0176 117.711 22.7813 118.045 23.6829C118.379 24.5845 118.546 25.5918 118.546 26.705C118.546 27.8274 118.379 28.8394 118.045 29.741C117.711 30.6426 117.238 31.4109 116.626 32.0457C116.014 32.6805 115.272 33.1681 114.401 33.5085C113.538 33.8489 112.574 34.019 111.508 34.019C110.441 34.019 109.472 33.8489 108.601 33.5085C107.729 33.1681 106.983 32.6805 106.361 32.0457C105.749 31.4109 105.272 30.6426 104.928 29.741C104.595 28.8394 104.428 27.8274 104.428 26.705C104.428 25.5918 104.595 24.5845 104.928 23.6829C105.272 22.7813 105.749 22.0176 106.361 21.392C106.983 20.7664 107.729 20.2834 108.601 19.943C109.472 19.6026 110.441 19.4324 111.508 19.4324ZM111.508 31.397C112.695 31.397 113.571 31.0014 114.137 30.2102C114.712 29.419 114.999 28.2598 114.999 26.7326C114.999 25.2054 114.712 24.0417 114.137 23.2413C113.571 22.4409 112.695 22.0407 111.508 22.0407C110.302 22.0407 109.412 22.4454 108.837 23.255C108.262 24.0554 107.975 25.2146 107.975 26.7326C107.975 28.2506 108.262 29.4098 108.837 30.2102C109.412 31.0014 110.302 31.397 111.508 31.397Z" fill="#492B7C"/>
<path d="M121.227 33.812V19.6532H123.327C123.772 19.6532 124.064 19.8602 124.203 20.2742L124.44 21.392C124.727 21.0976 125.028 20.8308 125.344 20.5916C125.668 20.3524 126.007 20.1454 126.359 19.9706C126.721 19.7958 127.106 19.6624 127.514 19.5704C127.922 19.4784 128.367 19.4324 128.849 19.4324C129.628 19.4324 130.319 19.5658 130.922 19.8326C131.524 20.0902 132.025 20.4582 132.423 20.9366C132.832 21.4058 133.138 21.9716 133.342 22.634C133.555 23.2872 133.662 24.0094 133.662 24.8007V33.812H130.226V24.8007C130.226 23.9359 130.022 23.2689 129.614 22.7996C129.215 22.3212 128.613 22.0821 127.806 22.0821C127.212 22.0821 126.656 22.2155 126.137 22.4823C125.617 22.7491 125.126 23.1124 124.662 23.5724V33.812H121.227Z" fill="#492B7C"/>
<path d="M142.936 19.4324C143.836 19.4324 144.661 19.575 145.411 19.8602C146.173 20.1454 146.826 20.564 147.372 21.116C147.919 21.6588 148.346 22.3304 148.653 23.1308C148.958 23.922 149.111 24.8282 149.111 25.8494C149.111 26.107 149.097 26.3232 149.069 26.498C149.051 26.6636 149.009 26.797 148.944 26.8982C148.889 26.9902 148.81 27.0592 148.708 27.1052C148.607 27.142 148.476 27.1604 148.319 27.1604H139.5C139.602 28.614 139.996 29.6812 140.682 30.3621C141.368 31.0428 142.278 31.3833 143.409 31.3833C143.965 31.3833 144.442 31.3188 144.841 31.19C145.249 31.0612 145.601 30.9186 145.898 30.7622C146.205 30.6059 146.469 30.4632 146.691 30.3344C146.923 30.2056 147.146 30.1412 147.358 30.1412C147.498 30.1412 147.619 30.1688 147.72 30.2241C147.822 30.2793 147.91 30.3574 147.984 30.4586L148.986 31.7006C148.607 32.1423 148.18 32.5148 147.707 32.8184C147.233 33.1128 146.737 33.352 146.219 33.536C145.709 33.7108 145.185 33.8351 144.647 33.9087C144.118 33.9823 143.603 34.019 143.102 34.019C142.111 34.019 141.188 33.858 140.334 33.536C139.481 33.2048 138.74 32.7219 138.109 32.0871C137.479 31.4431 136.983 30.6518 136.621 29.7134C136.26 28.7658 136.078 27.671 136.078 26.429C136.078 25.463 136.237 24.5568 136.551 23.7104C136.867 22.8548 137.316 22.1142 137.9 21.4886C138.494 20.8538 139.213 20.3524 140.056 19.9844C140.909 19.6164 141.869 19.4324 142.936 19.4324ZM143.005 21.875C142.003 21.875 141.22 22.1556 140.655 22.7168C140.089 23.278 139.727 24.0738 139.569 25.1042H146.023C146.023 24.6626 145.963 24.2487 145.843 23.8623C145.723 23.4667 145.536 23.1216 145.286 22.8272C145.037 22.5328 144.721 22.3028 144.34 22.1372C143.961 21.9624 143.515 21.875 143.005 21.875Z" fill="#492B7C"/>
<path fill-rule="evenodd" clip-rule="evenodd" d="M24.0711 46C36.8745 46 47.2536 35.7025 47.2536 23C47.2536 10.2975 36.8745 0 24.0711 0C11.2678 0 0.888672 10.2975 0.888672 23C0.888672 35.7025 11.2678 46 24.0711 46ZM17.0032 32.0072C18.6108 32.7492 20.5014 33.1203 22.6753 33.1203C23.9358 33.1203 25.2602 32.9994 26.6485 32.7579C28.0551 32.499 29.407 32.1021 30.704 31.5671C31.9097 31.0666 32.5125 30.2901 32.5125 29.2375C32.5125 28.9096 32.4394 28.6422 32.2933 28.435C32.1471 28.2279 31.9279 28.1244 31.6356 28.1244C31.453 28.1244 31.2246 28.1762 30.9506 28.2797C29.4709 28.8664 28.1191 29.3065 26.8952 29.5999C25.6894 29.876 24.4929 30.014 23.3056 30.014C20.9125 30.014 19.104 29.4532 17.88 28.3315C16.6561 27.1925 16.0441 25.5876 16.0441 23.5169C16.0441 21.5323 16.3821 19.824 17.0581 18.3916C17.7339 16.9421 18.6199 15.8462 19.716 15.1042C20.812 14.3621 21.9629 13.9912 23.1685 13.9912C24.9405 13.9912 25.8265 14.7764 25.8265 16.3466C25.8265 16.6572 25.7717 17.0715 25.6621 17.5891C25.589 18.0034 25.5525 18.2881 25.5525 18.4433C25.5525 18.8748 25.6986 19.2027 25.9909 19.427C26.2832 19.6513 26.6851 19.7635 27.1966 19.7635C27.9273 19.7635 28.4845 19.4442 28.868 18.8057C29.2699 18.1673 29.4709 17.3217 29.4709 16.269C29.4709 14.6987 28.9594 13.4389 27.9364 12.4898C26.9134 11.5234 25.4155 11.0402 23.4426 11.0402C21.3235 11.0402 19.3963 11.5838 17.6608 12.671C15.9254 13.7408 14.5462 15.2595 13.5232 17.2267C12.5185 19.194 12.0161 21.4461 12.0161 23.9827C12.0161 25.812 12.4454 27.4169 13.304 28.7974C14.1626 30.1779 15.3957 31.2479 17.0032 32.0072ZM35.3413 32.499C35.7614 32.9131 36.3733 33.1203 37.1772 33.1203C37.9992 33.1203 38.6478 32.8873 39.1227 32.4213C39.5977 31.9382 39.8351 31.2997 39.8351 30.5058C39.8351 29.781 39.625 29.2375 39.2049 28.8751C38.803 28.4955 38.2002 28.3056 37.3964 28.3056C36.5561 28.3056 35.8984 28.5385 35.4234 29.0045C34.9668 29.4704 34.7384 30.0917 34.7384 30.8682C34.7384 31.5412 34.9394 32.0849 35.3413 32.499Z" fill="#492B7C"/>
</svg>
