<svg width="16" height="16" viewBox="0 0 16 16" fill="none" xmlns="http://www.w3.org/2000/svg">
<path d="M7.99967 10.333C9.47301 10.333 10.6663 9.13967 10.6663 7.66634V3.99967C10.6663 2.52634 9.47301 1.33301 7.99967 1.33301C6.52634 1.33301 5.33301 2.52634 5.33301 3.99967V7.66634C5.33301 9.13967 6.52634 10.333 7.99967 10.333Z" stroke="#292D32" stroke-linecap="round" stroke-linejoin="round"/>
<path d="M2.89941 6.43359V7.56693C2.89941 10.3803 5.18608 12.6669 7.99941 12.6669C10.8127 12.6669 13.0994 10.3803 13.0994 7.56693V6.43359" stroke="#292D32" stroke-linecap="round" stroke-linejoin="round"/>
<path d="M7.07324 4.28707C7.67324 4.06707 8.32658 4.06707 8.92658 4.28707" stroke="#292D32" stroke-linecap="round" stroke-linejoin="round"/>
<path d="M7.4668 5.69988C7.82013 5.60655 8.1868 5.60655 8.54013 5.69988" stroke="#292D32" stroke-linecap="round" stroke-linejoin="round"/>
<path d="M8 12.667V14.667" stroke="#292D32" stroke-linecap="round" stroke-linejoin="round"/>
</svg>
