<svg width="24" height="24" viewBox="0 0 24 24" fill="none" xmlns="http://www.w3.org/2000/svg">
<path d="M10.0005 18.999C10.0005 20.099 10.9005 20.999 12.0005 20.999C13.1005 20.999 14.0005 20.099 14.0005 18.999C14.0005 17.899 13.1005 16.999 12.0005 16.999C10.9005 16.999 10.0005 17.899 10.0005 18.999Z" stroke="white" stroke-width="1.5"/>
<path d="M10.0005 4.99902C10.0005 6.09902 10.9005 6.99902 12.0005 6.99902C13.1005 6.99902 14.0005 6.09902 14.0005 4.99902C14.0005 3.89902 13.1005 2.99902 12.0005 2.99902C10.9005 2.99902 10.0005 3.89902 10.0005 4.99902Z" stroke="white" stroke-width="1.5"/>
<path d="M10.0005 11.999C10.0005 13.099 10.9005 13.999 12.0005 13.999C13.1005 13.999 14.0005 13.099 14.0005 11.999C14.0005 10.899 13.1005 9.99902 12.0005 9.99902C10.9005 9.99902 10.0005 10.899 10.0005 11.999Z" stroke="white" stroke-width="1.5"/>
</svg>
