<svg width="76" height="25" viewBox="0 0 76 25" fill="none" xmlns="http://www.w3.org/2000/svg">
<rect width="25" height="25" rx="4" fill="#EC6E66"/>
<path d="M41.89 18.792C41.9927 18.9507 42.0347 19.0907 42.016 19.212C41.9973 19.3427 41.946 19.45 41.862 19.534C41.778 19.6273 41.6707 19.6833 41.54 19.702C41.4093 19.73 41.2787 19.716 41.148 19.66C41.0173 19.6133 40.9053 19.5153 40.812 19.366L39.902 17.882C39.7527 17.6393 39.552 17.4527 39.3 17.322C39.048 17.1913 38.7447 17.126 38.39 17.126L39.44 16.692C39.8787 16.692 40.224 16.7713 40.476 16.93C40.7373 17.0793 40.994 17.3547 41.246 17.756L41.89 18.792ZM38.404 17.126C37.4707 17.126 36.6633 16.9207 35.982 16.51C35.3007 16.09 34.7687 15.502 34.386 14.746C34.0127 13.9807 33.826 13.0847 33.826 12.058C33.826 11.2833 33.9333 10.588 34.148 9.972C34.3627 9.34667 34.666 8.81467 35.058 8.376C35.4593 7.928 35.94 7.58733 36.5 7.354C37.0693 7.12067 37.704 7.004 38.404 7.004C39.3373 7.004 40.1447 7.20933 40.826 7.62C41.5073 8.03067 42.0347 8.614 42.408 9.37C42.7813 10.126 42.968 11.0173 42.968 12.044C42.968 12.8187 42.8607 13.5187 42.646 14.144C42.4313 14.7693 42.1233 15.306 41.722 15.754C41.33 16.202 40.854 16.5427 40.294 16.776C39.734 17.0093 39.104 17.126 38.404 17.126ZM38.404 15.978C39.076 15.978 39.65 15.824 40.126 15.516C40.602 15.208 40.966 14.76 41.218 14.172C41.4793 13.584 41.61 12.8793 41.61 12.058C41.61 10.8167 41.33 9.85533 40.77 9.174C40.2193 8.49267 39.4307 8.152 38.404 8.152C37.732 8.152 37.1533 8.306 36.668 8.614C36.192 8.91267 35.828 9.356 35.576 9.944C35.324 10.5227 35.198 11.2273 35.198 12.058C35.198 13.29 35.478 14.2513 36.038 14.942C36.598 15.6327 37.3867 15.978 38.404 15.978ZM47.2588 17.126C46.7081 17.126 46.2461 17.0233 45.8728 16.818C45.5088 16.6127 45.2381 16.3093 45.0608 15.908C44.8834 15.5067 44.7948 15.0027 44.7948 14.396V10.728C44.7948 10.5133 44.8461 10.3547 44.9488 10.252C45.0608 10.14 45.2194 10.084 45.4248 10.084C45.6301 10.084 45.7888 10.14 45.9008 10.252C46.0128 10.3547 46.0688 10.5133 46.0688 10.728V14.396C46.0688 14.9747 46.1854 15.404 46.4188 15.684C46.6521 15.9547 47.0208 16.09 47.5248 16.09C48.0848 16.09 48.5374 15.9033 48.8828 15.53C49.2374 15.1567 49.4148 14.662 49.4148 14.046V10.728C49.4148 10.5133 49.4661 10.3547 49.5688 10.252C49.6808 10.14 49.8394 10.084 50.0448 10.084C50.2501 10.084 50.4088 10.14 50.5208 10.252C50.6328 10.3547 50.6888 10.5133 50.6888 10.728V16.44C50.6888 16.8787 50.4834 17.098 50.0728 17.098C49.8674 17.098 49.7088 17.042 49.5968 16.93C49.4941 16.818 49.4428 16.6547 49.4428 16.44V15.222L49.6248 15.46C49.4381 16.0013 49.1348 16.4167 48.7148 16.706C48.3041 16.986 47.8188 17.126 47.2588 17.126ZM53.3688 17.07C53.1728 17.07 53.0188 17.0093 52.9068 16.888C52.7948 16.7667 52.7388 16.5987 52.7388 16.384V10.798C52.7388 10.574 52.7948 10.406 52.9068 10.294C53.0188 10.1727 53.1728 10.112 53.3688 10.112C53.5741 10.112 53.7328 10.1727 53.8448 10.294C53.9568 10.406 54.0128 10.574 54.0128 10.798V16.384C54.0128 16.5987 53.9568 16.7667 53.8448 16.888C53.7421 17.0093 53.5835 17.07 53.3688 17.07ZM53.3688 8.6C53.1168 8.6 52.9161 8.53467 52.7668 8.404C52.6268 8.264 52.5568 8.082 52.5568 7.858C52.5568 7.61533 52.6268 7.43333 52.7668 7.312C52.9161 7.18133 53.1168 7.116 53.3688 7.116C53.6395 7.116 53.8401 7.18133 53.9708 7.312C54.1108 7.43333 54.1808 7.61533 54.1808 7.858C54.1808 8.082 54.1108 8.264 53.9708 8.404C53.8401 8.53467 53.6395 8.6 53.3688 8.6ZM56.2711 17C56.1311 17 56.0191 16.9673 55.9351 16.902C55.8511 16.8367 55.7904 16.7527 55.7531 16.65C55.7251 16.5473 55.7251 16.4353 55.7531 16.314C55.7904 16.1927 55.8604 16.0713 55.9631 15.95L59.8411 10.84V11.162H56.1871C56.0284 11.162 55.9024 11.12 55.8091 11.036C55.7251 10.9427 55.6831 10.8213 55.6831 10.672C55.6831 10.5133 55.7251 10.392 55.8091 10.308C55.9024 10.224 56.0284 10.182 56.1871 10.182H60.4571C60.6157 10.182 60.7417 10.2147 60.8351 10.28C60.9377 10.3453 61.0031 10.4293 61.0311 10.532C61.0684 10.6347 61.0731 10.7467 61.0451 10.868C61.0171 10.98 60.9517 11.092 60.8491 11.204L56.9151 16.37V16.02H60.7511C61.0871 16.02 61.2551 16.1833 61.2551 16.51C61.2551 16.6593 61.2084 16.7807 61.1151 16.874C61.0311 16.958 60.9097 17 60.7511 17H56.2711ZM65.5958 17.126C64.8585 17.126 64.2238 16.986 63.6918 16.706C63.1692 16.4167 62.7632 16.0107 62.4738 15.488C62.1845 14.956 62.0398 14.3307 62.0398 13.612C62.0398 12.9027 62.1798 12.282 62.4598 11.75C62.7492 11.218 63.1412 10.8027 63.6358 10.504C64.1398 10.2053 64.7138 10.056 65.3578 10.056C65.8152 10.056 66.2258 10.1353 66.5898 10.294C66.9632 10.4433 67.2805 10.6627 67.5418 10.952C67.8032 11.2413 67.9992 11.596 68.1298 12.016C68.2698 12.4267 68.3398 12.8933 68.3398 13.416C68.3398 13.5653 68.2932 13.682 68.1998 13.766C68.1158 13.8407 67.9898 13.878 67.8218 13.878H63.0338V13.066H67.4998L67.2618 13.262C67.2618 12.7767 67.1872 12.366 67.0378 12.03C66.8978 11.6847 66.6878 11.4233 66.4078 11.246C66.1372 11.0687 65.7965 10.98 65.3858 10.98C64.9378 10.98 64.5552 11.0873 64.2378 11.302C63.9205 11.5073 63.6778 11.8013 63.5098 12.184C63.3418 12.5573 63.2578 12.9913 63.2578 13.486V13.57C63.2578 14.41 63.4585 15.0447 63.8598 15.474C64.2612 15.9033 64.8398 16.118 65.5958 16.118C65.8945 16.118 66.1978 16.0807 66.5058 16.006C66.8232 15.9313 67.1265 15.796 67.4158 15.6C67.5558 15.516 67.6818 15.4787 67.7938 15.488C67.9152 15.488 68.0132 15.5253 68.0878 15.6C68.1625 15.6653 68.2092 15.7493 68.2278 15.852C68.2465 15.9453 68.2325 16.048 68.1858 16.16C68.1392 16.272 68.0505 16.37 67.9198 16.454C67.6118 16.6687 67.2432 16.8367 66.8138 16.958C66.3938 17.07 65.9878 17.126 65.5958 17.126ZM72.2763 17.126C71.8563 17.126 71.4317 17.0793 71.0023 16.986C70.5823 16.8833 70.1857 16.7107 69.8123 16.468C69.7097 16.4027 69.635 16.3233 69.5883 16.23C69.551 16.1273 69.537 16.0293 69.5463 15.936C69.565 15.8333 69.607 15.7447 69.6723 15.67C69.7377 15.5953 69.817 15.5533 69.9103 15.544C70.013 15.5253 70.1203 15.5487 70.2323 15.614C70.5963 15.8193 70.9463 15.964 71.2823 16.048C71.6277 16.132 71.9683 16.174 72.3043 16.174C72.8177 16.174 73.205 16.0807 73.4663 15.894C73.7277 15.7073 73.8583 15.46 73.8583 15.152C73.8583 14.8907 73.7697 14.69 73.5923 14.55C73.4243 14.4007 73.1583 14.2887 72.7943 14.214L71.4923 13.948C70.9137 13.8173 70.475 13.6027 70.1763 13.304C69.887 12.996 69.7423 12.604 69.7423 12.128C69.7423 11.708 69.8543 11.344 70.0783 11.036C70.3117 10.7187 70.6337 10.476 71.0443 10.308C71.455 10.14 71.9263 10.056 72.4583 10.056C72.869 10.056 73.2563 10.112 73.6203 10.224C73.9937 10.3267 74.3297 10.4853 74.6283 10.7C74.7403 10.7653 74.8103 10.8493 74.8383 10.952C74.8757 11.0453 74.8803 11.1433 74.8523 11.246C74.8337 11.3393 74.7917 11.4187 74.7263 11.484C74.661 11.5493 74.577 11.5913 74.4743 11.61C74.3717 11.6193 74.2597 11.5913 74.1383 11.526C73.8677 11.3393 73.5877 11.2087 73.2983 11.134C73.0183 11.05 72.7383 11.008 72.4583 11.008C71.9543 11.008 71.5717 11.106 71.3103 11.302C71.0583 11.498 70.9323 11.7547 70.9323 12.072C70.9323 12.3147 71.007 12.5153 71.1563 12.674C71.315 12.8327 71.5623 12.9493 71.8983 13.024L73.2003 13.29C73.807 13.4207 74.2643 13.6307 74.5723 13.92C74.8803 14.2 75.0343 14.5827 75.0343 15.068C75.0343 15.7027 74.7823 16.2067 74.2783 16.58C73.7837 16.944 73.1163 17.126 72.2763 17.126Z" fill="black"/>
</svg>
