<svg width="20" height="20" viewBox="0 0 20 20" fill="none" xmlns="http://www.w3.org/2000/svg">
<g opacity="0.8">
<path d="M18.3334 10.0001C18.3334 5.40841 14.5917 1.66675 10.0001 1.66675C5.40841 1.66675 1.66675 5.40841 1.66675 10.0001C1.66675 12.4167 2.70841 14.5917 4.35841 16.1167C4.35841 16.1251 4.35841 16.1251 4.35008 16.1334C4.43341 16.2167 4.53341 16.2834 4.61675 16.3584C4.66675 16.4001 4.70841 16.4417 4.75841 16.4751C4.90841 16.6001 5.07508 16.7167 5.23342 16.8334C5.29175 16.8751 5.34175 16.9084 5.40008 16.9501C5.55841 17.0584 5.72508 17.1584 5.90008 17.2501C5.95841 17.2834 6.02508 17.3251 6.08342 17.3584C6.25008 17.4501 6.42508 17.5334 6.60841 17.6084C6.67508 17.6417 6.74175 17.6751 6.80842 17.7001C6.99175 17.7751 7.17508 17.8417 7.35841 17.9001C7.42508 17.9251 7.49175 17.9501 7.55841 17.9667C7.75841 18.0251 7.95841 18.0751 8.15841 18.1251C8.21675 18.1417 8.27508 18.1584 8.34175 18.1667C8.57508 18.2167 8.80841 18.2501 9.05008 18.2751C9.08341 18.2751 9.11675 18.2834 9.15008 18.2917C9.43341 18.3167 9.71675 18.3334 10.0001 18.3334C10.2834 18.3334 10.5667 18.3167 10.8417 18.2917C10.8751 18.2917 10.9084 18.2834 10.9417 18.2751C11.1834 18.2501 11.4167 18.2167 11.6501 18.1667C11.7084 18.1584 11.7667 18.1334 11.8334 18.1251C12.0334 18.0751 12.2417 18.0334 12.4334 17.9667C12.5001 17.9417 12.5667 17.9167 12.6334 17.9001C12.8167 17.8334 13.0084 17.7751 13.1834 17.7001C13.2501 17.6751 13.3167 17.6417 13.3834 17.6084C13.5584 17.5334 13.7334 17.4501 13.9084 17.3584C13.9751 17.3251 14.0334 17.2834 14.0917 17.2501C14.2584 17.1501 14.4251 17.0584 14.5917 16.9501C14.6501 16.9167 14.7001 16.8751 14.7584 16.8334C14.9251 16.7167 15.0834 16.6001 15.2334 16.4751C15.2834 16.4334 15.3251 16.3917 15.3751 16.3584C15.4667 16.2834 15.5584 16.2084 15.6417 16.1334C15.6417 16.1251 15.6417 16.1251 15.6334 16.1167C17.2917 14.5917 18.3334 12.4167 18.3334 10.0001ZM14.1167 14.1417C11.8584 12.6251 8.15841 12.6251 5.88341 14.1417C5.51675 14.3834 5.21675 14.6667 4.96675 14.9751C3.70008 13.6917 2.91675 11.9334 2.91675 10.0001C2.91675 6.09175 6.09175 2.91675 10.0001 2.91675C13.9084 2.91675 17.0834 6.09175 17.0834 10.0001C17.0834 11.9334 16.3001 13.6917 15.0334 14.9751C14.7917 14.6667 14.4834 14.3834 14.1167 14.1417Z" fill="#333333"/>
<path d="M10 5.7749C8.275 5.7749 6.875 7.1749 6.875 8.8999C6.875 10.5916 8.2 11.9666 9.95833 12.0166C9.98333 12.0166 10.0167 12.0166 10.0333 12.0166C10.05 12.0166 10.075 12.0166 10.0917 12.0166C10.1 12.0166 10.1083 12.0166 10.1083 12.0166C11.7917 11.9582 13.1167 10.5916 13.125 8.8999C13.125 7.1749 11.725 5.7749 10 5.7749Z" fill="#333333"/>
</g>
</svg>
