<svg width="39" height="40" viewBox="0 0 39 40" fill="none" xmlns="http://www.w3.org/2000/svg">
<rect width="38.3333" height="40" fill="#492B7C"/>
<path d="M19.3439 27.9933C18.5919 27.9933 17.8559 27.9293 17.1359 27.8013C16.4159 27.6733 15.7439 27.4893 15.1199 27.2493C14.5119 27.0093 13.9599 26.7053 13.4639 26.3373C13.2719 26.1933 13.1359 26.0333 13.0559 25.8573C12.9919 25.6653 12.9759 25.4813 13.0079 25.3053C13.0559 25.1133 13.1359 24.9533 13.2479 24.8253C13.3759 24.6973 13.5279 24.6253 13.7039 24.6093C13.8799 24.5933 14.0719 24.6493 14.2799 24.7773C14.9999 25.2893 15.7679 25.6653 16.5839 25.9053C17.3999 26.1293 18.3199 26.2413 19.3439 26.2413C20.7839 26.2413 21.8479 25.9773 22.5359 25.4493C23.2399 24.9053 23.5919 24.1933 23.5919 23.3133C23.5919 22.5933 23.3359 22.0333 22.8239 21.6333C22.3279 21.2173 21.4879 20.8893 20.3039 20.6493L17.8079 20.1453C16.3039 19.8253 15.1759 19.3053 14.4239 18.5853C13.6879 17.8493 13.3199 16.8733 13.3199 15.6573C13.3199 14.9053 13.4719 14.2253 13.7759 13.6173C14.0799 12.9933 14.5039 12.4653 15.0479 12.0333C15.5919 11.5853 16.2399 11.2413 16.9919 11.0013C17.7439 10.7613 18.5759 10.6413 19.4879 10.6413C20.4959 10.6413 21.4319 10.7853 22.2959 11.0733C23.1759 11.3453 23.9679 11.7613 24.6719 12.3213C24.8479 12.4653 24.9679 12.6333 25.0319 12.8253C25.0959 13.0013 25.1039 13.1773 25.0559 13.3533C25.0079 13.5133 24.9199 13.6493 24.7919 13.7613C24.6799 13.8733 24.5279 13.9373 24.3359 13.9533C24.1599 13.9693 23.9599 13.9053 23.7359 13.7613C23.0959 13.2813 22.4319 12.9373 21.7439 12.7293C21.0559 12.5053 20.2959 12.3933 19.4639 12.3933C18.6159 12.3933 17.8799 12.5213 17.2559 12.7773C16.6479 13.0333 16.1679 13.4093 15.8159 13.9053C15.4799 14.3853 15.3119 14.9453 15.3119 15.5853C15.3119 16.3533 15.5439 16.9613 16.0079 17.4093C16.4879 17.8573 17.2639 18.1853 18.3359 18.3933L20.8319 18.9213C22.4479 19.2573 23.6399 19.7693 24.4079 20.4573C25.1919 21.1293 25.5839 22.0493 25.5839 23.2173C25.5839 23.9213 25.4399 24.5693 25.1519 25.1613C24.8639 25.7533 24.4479 26.2653 23.9039 26.6973C23.3599 27.1133 22.7039 27.4333 21.9359 27.6573C21.1679 27.8813 20.3039 27.9933 19.3439 27.9933Z" fill="#E7E1E1"/>
<path d="M17.1359 27.8013L17.486 25.8322L17.1359 27.8013ZM15.1199 27.2493L14.3856 29.1097L14.3937 29.1129L14.402 29.116L15.1199 27.2493ZM13.4639 26.3373L12.2639 27.9374L12.2722 27.9435L13.4639 26.3373ZM13.0559 25.8573L11.1585 26.4898L11.1917 26.5894L11.2352 26.6849L13.0559 25.8573ZM13.0079 25.3053L11.0676 24.8203L11.0518 24.8835L11.0402 24.9476L13.0079 25.3053ZM13.2479 24.8253L11.8337 23.4111L11.7866 23.4582L11.7428 23.5083L13.2479 24.8253ZM13.7039 24.6093L13.885 26.6011H13.885L13.7039 24.6093ZM14.2799 24.7773L15.439 23.1474L15.3848 23.1089L15.3281 23.074L14.2799 24.7773ZM16.5839 25.9053L16.0196 27.8241L16.037 27.8292L16.0545 27.834L16.5839 25.9053ZM22.5359 25.4493L23.7536 27.036L23.7588 27.0319L22.5359 25.4493ZM22.8239 21.6333L21.5387 23.1657L21.5653 23.188L21.5926 23.2094L22.8239 21.6333ZM20.3039 20.6493L20.7012 18.6892L20.6998 18.6889L20.3039 20.6493ZM17.8079 20.1453L17.3917 22.1016L17.4019 22.1037L17.4121 22.1058L17.8079 20.1453ZM14.4239 18.5853L13.0097 19.9996L13.0251 20.0149L13.0408 20.03L14.4239 18.5853ZM13.7759 13.6173L15.5648 14.5118L15.5694 14.5026L15.5739 14.4933L13.7759 13.6173ZM15.0479 12.0333L16.2917 13.5996L16.3056 13.5885L16.3193 13.5772L15.0479 12.0333ZM16.9919 11.0013L16.3838 9.09602L16.3838 9.09602L16.9919 11.0013ZM22.2959 11.0733L21.6635 12.9707L21.6843 12.9777L21.7053 12.9841L22.2959 11.0733ZM24.6719 12.3213L25.9384 10.7734L25.9277 10.7647L25.917 10.7561L24.6719 12.3213ZM25.0319 12.8253L23.1345 13.4578L23.1431 13.4834L23.1523 13.5088L25.0319 12.8253ZM25.0559 13.3533L26.9716 13.928L26.9788 13.9039L26.9854 13.8796L25.0559 13.3533ZM24.7919 13.7613L23.4749 12.2562L23.4248 12.3L23.3777 12.3471L24.7919 13.7613ZM24.3359 13.9533L24.1698 11.9603L24.1623 11.9609L24.1548 11.9616L24.3359 13.9533ZM23.7359 13.7613L22.5359 15.3613L22.5937 15.4047L22.6544 15.4437L23.7359 13.7613ZM21.7439 12.7293L21.1247 14.6311L21.1449 14.6376L21.1651 14.6438L21.7439 12.7293ZM17.2559 12.7773L16.4968 10.927L16.4883 10.9305L16.4798 10.9341L17.2559 12.7773ZM15.8159 13.9053L14.1849 12.7478L14.1774 12.7584L15.8159 13.9053ZM16.0079 17.4093L14.6187 18.8481L14.6309 18.8599L14.6433 18.8715L16.0079 17.4093ZM18.3359 18.3933L18.7498 16.4366L18.7334 16.4332L18.7169 16.43L18.3359 18.3933ZM20.8319 18.9213L20.418 20.8781L20.4248 20.8795L20.8319 18.9213ZM24.4079 20.4573L23.0734 21.947L23.0897 21.9616L23.1063 21.9759L24.4079 20.4573ZM25.1519 25.1613L26.9504 26.0363L25.1519 25.1613ZM23.9039 26.6973L25.1188 28.2861L25.1333 28.2749L25.1477 28.2636L23.9039 26.6973ZM21.9359 27.6573L21.3759 25.7373L21.3759 25.7373L21.9359 27.6573ZM19.3439 25.9933C18.706 25.9933 18.0872 25.9391 17.486 25.8322L16.7858 29.7705C17.6246 29.9196 18.4779 29.9933 19.3439 29.9933V25.9933ZM17.486 25.8322C16.88 25.7245 16.3323 25.5728 15.8379 25.3827L14.402 29.116C15.1555 29.4059 15.9518 29.6222 16.7858 29.7705L17.486 25.8322ZM15.8542 25.389C15.3997 25.2096 15.003 24.9889 14.6556 24.7311L12.2722 27.9435C12.9169 28.4218 13.6241 28.8091 14.3856 29.1097L15.8542 25.389ZM14.6639 24.7373C14.6765 24.7468 14.7881 24.835 14.8766 25.0297L11.2352 26.6849C11.4837 27.2317 11.8674 27.6399 12.2639 27.9373L14.6639 24.7373ZM14.9533 25.2249C14.9814 25.3093 15.0113 25.4669 14.9756 25.6631L11.0402 24.9476C10.9405 25.4958 11.0024 26.0214 11.1585 26.4898L14.9533 25.2249ZM14.9482 25.7904C14.9318 25.8559 14.8818 25.9952 14.7531 26.1424L11.7428 23.5083C11.39 23.9115 11.18 24.3708 11.0676 24.8203L14.9482 25.7904ZM14.6621 26.2396C14.5764 26.3253 14.4605 26.4134 14.3141 26.4828C14.167 26.5525 14.0191 26.5889 13.885 26.6011L13.5228 22.6176C12.8687 22.677 12.2838 22.9611 11.8337 23.4111L14.6621 26.2396ZM13.885 26.6011C13.4937 26.6367 13.2539 26.4943 13.2317 26.4807L15.3281 23.074C14.89 22.8044 14.2661 22.55 13.5228 22.6176L13.885 26.6011ZM13.1209 26.4073C14.0146 27.0428 14.9825 27.5191 16.0196 27.8241L17.1482 23.9866C16.5533 23.8116 15.9852 23.5359 15.439 23.1474L13.1209 26.4073ZM16.0545 27.834C17.0746 28.114 18.1771 28.2413 19.3439 28.2413V24.2413C18.4627 24.2413 17.7252 24.1446 17.1133 23.9767L16.0545 27.834ZM19.3439 28.2413C20.9584 28.2413 22.5519 27.9582 23.7535 27.036L21.3183 23.8627C21.1439 23.9965 20.6094 24.2413 19.3439 24.2413V28.2413ZM23.7588 27.0319C24.9466 26.1141 25.5919 24.8207 25.5919 23.3133H21.5919C21.5919 23.566 21.5332 23.6966 21.313 23.8668L23.7588 27.0319ZM25.5919 23.3133C25.5919 22.0538 25.1093 20.8808 24.0552 20.0573L21.5926 23.2094C21.6051 23.2191 21.6046 23.2208 21.5982 23.2127C21.5914 23.2043 21.5851 23.1939 21.581 23.1849C21.577 23.1763 21.5792 23.178 21.5827 23.1956C21.5864 23.214 21.5919 23.2517 21.5919 23.3133H25.5919ZM24.1091 20.101C23.2204 19.3555 21.9745 18.9473 20.7012 18.6892L19.9066 22.6095C21.0013 22.8314 21.4355 23.0792 21.5387 23.1657L24.1091 20.101ZM20.6998 18.6889L18.2038 18.1849L17.4121 22.1058L19.9081 22.6098L20.6998 18.6889ZM18.2241 18.1891C16.9212 17.9119 16.1916 17.5089 15.8071 17.1407L13.0408 20.03C14.1602 21.1018 15.6866 21.7388 17.3917 22.1016L18.2241 18.1891ZM15.8381 17.1711C15.5402 16.8732 15.3199 16.4392 15.3199 15.6573H11.3199C11.3199 17.3074 11.8356 18.8255 13.0097 19.9996L15.8381 17.1711ZM15.3199 15.6573C15.3199 15.1824 15.4138 14.8136 15.5648 14.5118L11.9871 12.7229C11.53 13.6371 11.3199 14.6283 11.3199 15.6573H15.3199ZM15.5739 14.4933C15.7469 14.1381 15.9815 13.8459 16.2917 13.5996L13.8041 10.4671C13.0264 11.0848 12.4129 11.8486 11.9779 12.7414L15.5739 14.4933ZM16.3193 13.5772C16.645 13.309 17.0611 13.0787 17.6 12.9067L16.3838 9.09602C15.4187 9.40403 14.5388 9.86168 13.7765 10.4895L16.3193 13.5772ZM17.6 12.9067C18.1276 12.7383 18.7509 12.6413 19.4879 12.6413V8.64134C18.4009 8.64134 17.3602 8.7844 16.3838 9.09602L17.6 12.9067ZM19.4879 12.6413C20.3037 12.6413 21.0239 12.7575 21.6635 12.9707L22.9284 9.17598C21.8399 8.81315 20.6881 8.64134 19.4879 8.64134V12.6413ZM21.7053 12.9841C22.3534 13.1845 22.9223 13.4852 23.4269 13.8865L25.917 10.7561C25.0135 10.0375 23.9985 9.50623 22.8865 9.16254L21.7053 12.9841ZM23.4054 13.8693C23.3261 13.8043 23.2044 13.6675 23.1345 13.4578L26.9293 12.1929C26.7314 11.5992 26.3697 11.1264 25.9384 10.7734L23.4054 13.8693ZM23.1523 13.5088C23.1194 13.4184 23.0937 13.3069 23.088 13.1802C23.0822 13.0529 23.0976 12.9328 23.1264 12.8271L26.9854 13.8796C27.1452 13.2937 27.1127 12.6952 26.9115 12.1419L23.1523 13.5088ZM23.1403 12.7786C23.2024 12.5715 23.3253 12.3871 23.4749 12.2562L26.1089 15.2665C26.5146 14.9116 26.8134 14.4552 26.9716 13.928L23.1403 12.7786ZM23.3777 12.3471C23.6685 12.0564 23.9965 11.9747 24.1698 11.9603L24.502 15.9464C25.0593 15.9 25.6914 15.6903 26.2061 15.1756L23.3777 12.3471ZM24.1548 11.9616C24.3788 11.9412 24.5556 11.978 24.6635 12.0125C24.7171 12.0296 24.7562 12.047 24.7803 12.0588C24.8043 12.0706 24.8168 12.0786 24.8174 12.079L22.6544 15.4437C23.0721 15.7122 23.7224 16.0174 24.517 15.9451L24.1548 11.9616ZM24.9359 12.1613C24.1298 11.5568 23.2584 11.0978 22.3227 10.8149L21.1651 14.6438C21.6054 14.7769 22.062 15.0059 22.5359 15.3613L24.9359 12.1613ZM22.3631 10.8276C21.4477 10.5296 20.4753 10.3933 19.4639 10.3933V14.3933C20.1165 14.3933 20.6641 14.4811 21.1247 14.6311L22.3631 10.8276ZM19.4639 10.3933C18.4201 10.3933 17.415 10.5503 16.4968 10.927L18.015 14.6277C18.3449 14.4924 18.8117 14.3933 19.4639 14.3933V10.3933ZM16.4798 10.9341C15.5587 11.3219 14.7706 11.9225 14.1849 12.7479L17.4469 15.0628C17.5652 14.8962 17.7371 14.7448 18.032 14.6206L16.4798 10.9341ZM14.1774 12.7584C13.5843 13.6057 13.3119 14.5747 13.3119 15.5853H17.3119C17.3119 15.3159 17.3755 15.165 17.4544 15.0523L14.1774 12.7584ZM13.3119 15.5853C13.3119 16.7843 13.6907 17.9522 14.6187 18.8481L17.3971 15.9705C17.3782 15.9523 17.3668 15.9367 17.3545 15.9043C17.3395 15.865 17.3119 15.7687 17.3119 15.5853H13.3119ZM14.6433 18.8715C15.5243 19.6938 16.7329 20.1196 17.955 20.3567L18.7169 16.43C17.7949 16.2511 17.4515 16.0209 17.3725 15.9472L14.6433 18.8715ZM17.922 20.35L20.418 20.878L21.2458 16.9646L18.7498 16.4366L17.922 20.35ZM20.4248 20.8795C21.8828 21.1826 22.6807 21.5952 23.0734 21.947L25.7424 18.9677C24.5991 17.9435 23.013 17.3321 21.239 16.9632L20.4248 20.8795ZM23.1063 21.9759C23.3859 22.2155 23.5839 22.5476 23.5839 23.2173H27.5839C27.5839 21.5511 26.9979 20.0432 25.7095 18.9388L23.1063 21.9759ZM23.5839 23.2173C23.5839 23.6397 23.4997 23.9857 23.3534 24.2864L26.9504 26.0363C27.3801 25.153 27.5839 24.203 27.5839 23.2173H23.5839ZM23.3534 24.2864C23.2035 24.5946 22.9831 24.8746 22.6601 25.1311L25.1477 28.2636C25.9127 27.656 26.5243 26.9121 26.9504 26.0363L23.3534 24.2864ZM22.689 25.1086C22.371 25.3518 21.9462 25.571 21.3759 25.7373L22.4959 29.5773C23.4616 29.2957 24.3488 28.8749 25.1188 28.2861L22.689 25.1086ZM21.3759 25.7373C20.8219 25.8989 20.151 25.9933 19.3439 25.9933V29.9933C20.4569 29.9933 21.5139 29.8638 22.4959 29.5773L21.3759 25.7373Z" fill="#E7E1E1"/>
</svg>
