<svg width="19" height="18" viewBox="0 0 19 18" fill="none" xmlns="http://www.w3.org/2000/svg">
<path d="M18.588 8.33214L2.08802 0.0821386C1.9587 0.0174636 1.81344 -0.00845025 1.66973 0.00751736C1.52602 0.023485 1.38999 0.0806532 1.27802 0.172138C1.17109 0.261758 1.09128 0.379428 1.04756 0.511921C1.00383 0.644414 0.997935 0.786477 1.03052 0.922138L3.01802 8.24964H11.5005V9.74964H3.01802L1.00052 17.0546C0.969944 17.1679 0.966374 17.2868 0.990102 17.4017C1.01383 17.5167 1.06419 17.6244 1.13714 17.7163C1.21009 17.8082 1.30359 17.8818 1.41012 17.931C1.51666 17.9802 1.63325 18.0037 1.75052 17.9996C1.86793 17.9989 1.98353 17.9707 2.08802 17.9171L18.588 9.66714C18.7109 9.6042 18.814 9.50858 18.886 9.39081C18.958 9.27303 18.9961 9.13767 18.9961 8.99964C18.9961 8.8616 18.958 8.72625 18.886 8.60847C18.814 8.4907 18.7109 8.39508 18.588 8.33214Z" fill="#444444"/>
</svg>
