<svg width="19" height="18" viewBox="0 0 19 18" fill="none" xmlns="http://www.w3.org/2000/svg">
<path d="M18.5875 8.33214L2.08754 0.0821386C1.95821 0.0174636 1.81295 -0.00845025 1.66924 0.00751736C1.52554 0.023485 1.38951 0.0806532 1.27754 0.172138C1.1706 0.261758 1.09079 0.379428 1.04707 0.511921C1.00334 0.644414 0.997446 0.786477 1.03004 0.922138L3.01754 8.24964H11.5V9.74964H3.01754L1.00004 17.0546C0.969455 17.1679 0.965886 17.2868 0.989614 17.4017C1.01334 17.5167 1.06371 17.6244 1.13665 17.7163C1.2096 17.8082 1.3031 17.8818 1.40964 17.931C1.51617 17.9802 1.63276 18.0037 1.75004 17.9996C1.86744 17.9989 1.98304 17.9707 2.08754 17.9171L18.5875 9.66714C18.7104 9.6042 18.8135 9.50858 18.8855 9.39081C18.9575 9.27303 18.9956 9.13767 18.9956 8.99964C18.9956 8.8616 18.9575 8.72625 18.8855 8.60847C18.8135 8.4907 18.7104 8.39508 18.5875 8.33214Z" fill="#444444"/>
</svg>
