<svg width="32" height="33" viewBox="0 0 32 33" fill="none" xmlns="http://www.w3.org/2000/svg">
<path d="M16 21.5C13.24 21.5 11 19.26 11 16.5C11 13.74 13.24 11.5 16 11.5C18.76 11.5 21 13.74 21 16.5C21 19.26 18.76 21.5 16 21.5ZM16 13.5C14.3467 13.5 13 14.8467 13 16.5C13 18.1533 14.3467 19.5 16 19.5C17.6533 19.5 19 18.1533 19 16.5C19 14.8467 17.6533 13.5 16 13.5Z" fill="#292D32"/>
<path d="M20.2801 30.0869C20.0001 30.0869 19.7201 30.0469 19.4401 29.9802C18.6134 29.7536 17.9201 29.2336 17.4801 28.5002L17.3201 28.2336C16.5334 26.8736 15.4534 26.8736 14.6667 28.2336L14.5201 28.4869C14.0801 29.2336 13.3867 29.7669 12.5601 29.9802C11.7201 30.2069 10.8534 30.0869 10.1201 29.6469L7.82675 28.3269C7.01341 27.8602 6.42675 27.1002 6.17342 26.1802C5.93341 25.2602 6.05341 24.3136 6.52008 23.5002C6.90675 22.8202 7.01342 22.2069 6.78675 21.8202C6.56008 21.4336 5.98675 21.2069 5.20008 21.2069C3.25341 21.2069 1.66675 19.6202 1.66675 17.6736V15.3269C1.66675 13.3802 3.25341 11.7936 5.20008 11.7936C5.98675 11.7936 6.56008 11.5669 6.78675 11.1802C7.01342 10.7936 6.92008 10.1802 6.52008 9.50022C6.05341 8.68689 5.93341 7.72689 6.17342 6.82022C6.41342 5.90022 7.00008 5.14022 7.82675 4.67355L10.1334 3.35355C11.6401 2.46022 13.6267 2.98022 14.5334 4.51355L14.6934 4.78022C15.4801 6.14022 16.5601 6.14022 17.3467 4.78022L17.4934 4.52689C18.4001 2.98022 20.3867 2.46022 21.9067 3.36689L24.2001 4.68689C25.0134 5.15355 25.6001 5.91355 25.8534 6.83355C26.0934 7.75355 25.9734 8.70022 25.5067 9.51355C25.1201 10.1936 25.0134 10.8069 25.2401 11.1936C25.4667 11.5802 26.0401 11.8069 26.8267 11.8069C28.7734 11.8069 30.3601 13.3936 30.3601 15.3402V17.6869C30.3601 19.6336 28.7734 21.2202 26.8267 21.2202C26.0401 21.2202 25.4667 21.4469 25.2401 21.8336C25.0134 22.2202 25.1067 22.8336 25.5067 23.5136C25.9734 24.3269 26.1067 25.2869 25.8534 26.1936C25.6134 27.1136 25.0267 27.8736 24.2001 28.3402L21.8934 29.6602C21.3867 29.9402 20.8401 30.0869 20.2801 30.0869ZM16.0001 25.1536C17.1867 25.1536 18.2934 25.9002 19.0534 27.2202L19.2001 27.4736C19.3601 27.7536 19.6267 27.9536 19.9467 28.0336C20.2667 28.1136 20.5867 28.0736 20.8534 27.9136L23.1601 26.5802C23.5067 26.3802 23.7734 26.0469 23.8801 25.6469C23.9867 25.2469 23.9334 24.8336 23.7334 24.4869C22.9734 23.1802 22.8801 21.8336 23.4667 20.8069C24.0534 19.7802 25.2667 19.1936 26.7867 19.1936C27.6401 19.1936 28.3201 18.5136 28.3201 17.6602V15.3136C28.3201 14.4736 27.6401 13.7802 26.7867 13.7802C25.2667 13.7802 24.0534 13.1936 23.4667 12.1669C22.8801 11.1402 22.9734 9.79355 23.7334 8.48689C23.9334 8.14022 23.9867 7.72689 23.8801 7.32689C23.7734 6.92689 23.5201 6.60689 23.1734 6.39355L20.8667 5.07355C20.2934 4.72689 19.5334 4.92689 19.1867 5.51355L19.0401 5.76689C18.2801 7.08689 17.1734 7.83355 15.9867 7.83355C14.8001 7.83355 13.6934 7.08689 12.9334 5.76689L12.7867 5.50022C12.4534 4.94022 11.7067 4.74022 11.1334 5.07355L8.82675 6.40689C8.48008 6.60689 8.21341 6.94022 8.10675 7.34022C8.00008 7.74022 8.05341 8.15355 8.25341 8.50022C9.01341 9.80689 9.10675 11.1536 8.52008 12.1802C7.93341 13.2069 6.72008 13.7936 5.20008 13.7936C4.34675 13.7936 3.66675 14.4736 3.66675 15.3269V17.6736C3.66675 18.5136 4.34675 19.2069 5.20008 19.2069C6.72008 19.2069 7.93341 19.7936 8.52008 20.8202C9.10675 21.8469 9.01341 23.1936 8.25341 24.5002C8.05341 24.8469 8.00008 25.2602 8.10675 25.6602C8.21341 26.0602 8.46675 26.3802 8.81342 26.5936L11.1201 27.9136C11.4001 28.0869 11.7334 28.1269 12.0401 28.0469C12.3601 27.9669 12.6267 27.7536 12.8001 27.4736L12.9467 27.2202C13.7067 25.9136 14.8134 25.1536 16.0001 25.1536Z" fill="#292D32"/>
</svg>
