<svg width="20" height="20" viewBox="0 0 20 20" fill="none" xmlns="http://www.w3.org/2000/svg">
<g opacity="0.8">
<path d="M15.4499 3.43239L10.8666 1.71572C10.3916 1.54072 9.61659 1.54072 9.14159 1.71572L4.55825 3.43239C3.67492 3.76572 2.95825 4.79906 2.95825 5.74072V12.4907C2.95825 13.1657 3.39992 14.0574 3.94159 14.4574L8.52492 17.8824C9.33325 18.4907 10.6583 18.4907 11.4666 17.8824L16.0499 14.4574C16.5916 14.0491 17.0333 13.1657 17.0333 12.4907V5.74072C17.0416 4.79906 16.3249 3.76572 15.4499 3.43239ZM12.8999 8.09906L9.31659 11.6824C9.19159 11.8074 9.03325 11.8657 8.87492 11.8657C8.71658 11.8657 8.55825 11.8074 8.43325 11.6824L7.09992 10.3324C6.85825 10.0907 6.85825 9.69072 7.09992 9.44906C7.34159 9.20739 7.74158 9.20739 7.98325 9.44906L8.88325 10.3491L12.0249 7.20739C12.2666 6.96572 12.6666 6.96572 12.9083 7.20739C13.1499 7.44906 13.1499 7.85739 12.8999 8.09906Z" fill="#333333"/>
</g>
</svg>
