<svg width="24" height="24" viewBox="0 0 24 24" fill="none" xmlns="http://www.w3.org/2000/svg">
<path d="M9 22H15C20 22 22 20 22 15V9C22 4 20 2 15 2H9C4 2 2 4 2 9V15C2 20 4 22 9 22Z" stroke="#292D32" stroke-width="1.5" stroke-linecap="round" stroke-linejoin="round"/>
<path d="M9.1001 12.0005V10.5205C9.1001 8.61048 10.4501 7.84048 12.1001 8.79048L13.3801 9.53048L14.6601 10.2705C16.3101 11.2205 16.3101 12.7805 14.6601 13.7305L13.3801 14.4705L12.1001 15.2105C10.4501 16.1605 9.1001 15.3805 9.1001 13.4805V12.0005Z" stroke="#292D32" stroke-width="1.5" stroke-miterlimit="10" stroke-linecap="round" stroke-linejoin="round"/>
</svg>
